<?xml version="1.0" encoding="UTF-8"?>
<svg xmlns="http://www.w3.org/2000/svg" xmlns:xlink="http://www.w3.org/1999/xlink" width="15pt" height="15pt" viewBox="0 0 15 15" version="1.1">
<g id="surface1">
<path style=" stroke:none;fill-rule:nonzero;fill:rgb(6.666667%,56.470588%,79.607843%);fill-opacity:1;" d="M 5.101562 6.839844 C 6.300781 6.839844 7.269531 5.53125 7.269531 3.921875 C 7.269531 2.316406 6.300781 1.007812 5.101562 1.007812 C 3.902344 1.007812 2.925781 2.316406 2.925781 3.921875 C 2.925781 5.53125 3.902344 6.839844 5.101562 6.839844 Z M 5.101562 6.839844 "/>
<path style=" stroke:none;fill-rule:nonzero;fill:rgb(6.666667%,56.470588%,79.607843%);fill-opacity:1;" d="M 11.542969 9.675781 C 11.5 9.613281 11.457031 9.558594 11.433594 9.507812 C 10.949219 8.464844 9.613281 7.242188 7.457031 7.210938 L 7.378906 7.210938 C 5.253906 7.210938 3.929688 8.371094 3.402344 9.460938 C 3.382812 9.496094 3.34375 9.542969 3.300781 9.59375 C 3.25 9.65625 3.199219 9.71875 3.160156 9.78125 C 2.710938 10.476562 2.480469 11.261719 2.515625 11.984375 C 2.550781 12.753906 2.875 13.375 3.421875 13.730469 C 3.644531 13.871094 3.886719 13.941406 4.136719 13.941406 C 4.652344 13.941406 5.128906 13.648438 5.675781 13.3125 C 6.027344 13.097656 6.386719 12.875 6.789062 12.707031 C 6.832031 12.695312 7.015625 12.671875 7.316406 12.671875 C 7.675781 12.671875 7.929688 12.703125 7.988281 12.722656 C 8.378906 12.894531 8.722656 13.121094 9.050781 13.339844 C 9.5625 13.675781 10.042969 13.992188 10.566406 13.992188 C 10.789062 13.992188 11.007812 13.933594 11.210938 13.816406 C 12.339844 13.175781 12.558594 11.414062 11.691406 9.894531 C 11.648438 9.816406 11.597656 9.746094 11.542969 9.675781 Z M 11.542969 9.675781 "/>
<path style=" stroke:none;fill-rule:nonzero;fill:rgb(6.666667%,56.470588%,79.607843%);fill-opacity:1;" d="M 9.722656 6.839844 C 10.917969 6.839844 11.890625 5.53125 11.890625 3.921875 C 11.890625 2.316406 10.917969 1.007812 9.722656 1.007812 C 8.523438 1.007812 7.546875 2.316406 7.546875 3.921875 C 7.546875 5.53125 8.523438 6.839844 9.722656 6.839844 Z M 9.722656 6.839844 "/>
<path style=" stroke:none;fill-rule:nonzero;fill:rgb(6.666667%,56.470588%,79.607843%);fill-opacity:1;" d="M 13.289062 5.339844 C 12.328125 5.339844 11.574219 6.335938 11.574219 7.609375 C 11.574219 8.878906 12.328125 9.875 13.289062 9.875 C 14.246094 9.875 15 8.878906 15 7.609375 C 15 6.335938 14.246094 5.339844 13.289062 5.339844 Z M 13.289062 5.339844 "/>
<path style=" stroke:none;fill-rule:nonzero;fill:rgb(6.666667%,56.470588%,79.607843%);fill-opacity:1;" d="M 3.425781 7.609375 C 3.425781 6.335938 2.671875 5.339844 1.710938 5.339844 C 0.753906 5.339844 0 6.335938 0 7.609375 C 0 8.878906 0.753906 9.875 1.710938 9.875 C 2.671875 9.875 3.425781 8.878906 3.425781 7.609375 Z M 3.425781 7.609375 "/>
</g>
</svg>
