<?xml version="1.0" encoding="UTF-8"?>
<svg xmlns="http://www.w3.org/2000/svg" xmlns:xlink="http://www.w3.org/1999/xlink" width="10pt" height="10pt" viewBox="0 0 10 10" version="1.1">
<g id="surface1">
<path style=" stroke:none;fill-rule:nonzero;fill:rgb(6.666667%,56.470588%,79.607843%);fill-opacity:1;" d="M 3.355469 4.5 C 4.144531 4.5 4.78125 3.640625 4.78125 2.582031 C 4.78125 1.523438 4.144531 0.664062 3.355469 0.664062 C 2.566406 0.664062 1.925781 1.523438 1.925781 2.582031 C 1.925781 3.640625 2.566406 4.5 3.355469 4.5 Z M 3.355469 4.5 "/>
<path style=" stroke:none;fill-rule:nonzero;fill:rgb(6.666667%,56.470588%,79.607843%);fill-opacity:1;" d="M 7.59375 6.367188 C 7.566406 6.324219 7.539062 6.289062 7.523438 6.253906 C 7.203125 5.570312 6.324219 4.765625 4.90625 4.742188 L 4.855469 4.742188 C 3.457031 4.742188 2.585938 5.507812 2.238281 6.222656 C 2.226562 6.246094 2.199219 6.277344 2.171875 6.3125 C 2.136719 6.351562 2.105469 6.394531 2.078125 6.433594 C 1.785156 6.890625 1.632812 7.410156 1.65625 7.882812 C 1.679688 8.390625 1.890625 8.800781 2.25 9.035156 C 2.398438 9.125 2.558594 9.171875 2.722656 9.171875 C 3.0625 9.171875 3.375 8.980469 3.734375 8.757812 C 3.964844 8.617188 4.203125 8.46875 4.464844 8.359375 C 4.496094 8.351562 4.617188 8.335938 4.8125 8.335938 C 5.050781 8.335938 5.21875 8.355469 5.253906 8.371094 C 5.511719 8.484375 5.738281 8.632812 5.953125 8.777344 C 6.292969 8.996094 6.605469 9.207031 6.953125 9.207031 C 7.097656 9.207031 7.242188 9.167969 7.375 9.089844 C 8.117188 8.667969 8.261719 7.507812 7.691406 6.507812 C 7.664062 6.457031 7.628906 6.410156 7.59375 6.367188 Z M 7.59375 6.367188 "/>
<path style=" stroke:none;fill-rule:nonzero;fill:rgb(6.666667%,56.470588%,79.607843%);fill-opacity:1;" d="M 6.394531 4.5 C 7.183594 4.5 7.824219 3.640625 7.824219 2.582031 C 7.824219 1.523438 7.183594 0.664062 6.394531 0.664062 C 5.609375 0.664062 4.964844 1.523438 4.964844 2.582031 C 4.964844 3.640625 5.609375 4.5 6.394531 4.5 Z M 6.394531 4.5 "/>
<path style=" stroke:none;fill-rule:nonzero;fill:rgb(6.666667%,56.470588%,79.607843%);fill-opacity:1;" d="M 8.742188 3.511719 C 8.109375 3.511719 7.613281 4.167969 7.613281 5.007812 C 7.613281 5.839844 8.109375 6.496094 8.742188 6.496094 C 9.371094 6.496094 9.867188 5.839844 9.867188 5.007812 C 9.867188 4.167969 9.371094 3.511719 8.742188 3.511719 Z M 8.742188 3.511719 "/>
<path style=" stroke:none;fill-rule:nonzero;fill:rgb(6.666667%,56.470588%,79.607843%);fill-opacity:1;" d="M 2.253906 5.007812 C 2.253906 4.167969 1.757812 3.511719 1.125 3.511719 C 0.496094 3.511719 0 4.167969 0 5.007812 C 0 5.839844 0.496094 6.496094 1.125 6.496094 C 1.757812 6.496094 2.253906 5.839844 2.253906 5.007812 Z M 2.253906 5.007812 "/>
</g>
</svg>
